# xmcd
#
# Track frame offsets:
#	150
#	16059
#	32402
#	48788
#	65981
#	87627
#	108203
#	122872
#	144043
#	164259
#	182101
#	196788
#
# Disc length: 2915 seconds
#
# Revision: 0
# Processed by: cddbd v1.5.2PL0 Copyright (c) Steve Scherf et al.
# Submitted via: audiograbber 1.83.01
#
DISCID=970b610c
DTITLE=Cdpool - Street February 10 CD2
DYEAR=2010
DGENRE=R&B
TTITLE0=LMFAO - La La La (Main)
TTITLE1=Jayare Ft Clones - The Nike Song
TTITLE2=K'Naan - T.I.A. (This Is Africa)
TTITLE3=Basement Freaks - Something Freaky
TTITLE4=Lupe Fiasco - I'm Beaming (Explicit)
TTITLE5=Robin Thicke - Sex Therapy
TTITLE6=Gappy Ranks - Butterflies
TTITLE7=Jamie Foxx Ft Gucci Mane - Speak French
TTITLE8=Party Boyz - Flex
TTITLE9=Jesse Saunders - Nasty (B Boy Remix)
TTITLE10=Swazy Styles - Hands Up (Dirty)
TTITLE11=Nyilah - Under My Skin (Naughty Raver Remix)
EXTD=
EXTT0=
EXTT1=
EXTT2=
EXTT3=
EXTT4=
EXTT5=
EXTT6=
EXTT7=
EXTT8=
EXTT9=
EXTT10=
EXTT11=
PLAYORDER=
